# xmcd CD database file
#
# Track frame offsets:
#	150
#	202102
#	326825
#
# Disc length: 4720 seconds
#
# Revision: 0
# Processed by: cddbd v1.5.2PL0 Copyright (c) Steve Scherf et al.
# Submitted via: CDex 1.51
#
DISCID=2a126e03
DTITLE=Keith Jarrett - Jarret K. - La Scala
DYEAR=1997
DGENRE=Jazz
TTITLE0=La Scala, Pt 1
TTITLE1=La Scala, Pt 2
TTITLE2=Over the Rainbow
EXTD=YEAR: 1997
EXTT0=
EXTT1=
EXTT2=
PLAYORDER=
